<svg width="56" height="78" viewBox="0 0 56 78" fill="none" xmlns="http://www.w3.org/2000/svg">
<circle cx="28" cy="28" r="22" fill="#C4C4C4" fill-opacity="0.4"/>
<g clip-path="url(#clip0_16_72)">
<path d="M23.001 45C25.7604 45 28 42.76 28 40V35H23.001C20.2415 35 18.002 37.24 18.002 40C18.002 42.76 20.2415 45 23.001 45Z" fill="#0ACF83"/>
<path d="M18.002 30C18.002 27.24 20.2415 25 23.001 25H28V35H23.001C20.2415 35 18.002 32.76 18.002 30Z" fill="#A259FF"/>
<path d="M18.0099 20C18.0099 17.24 20.2494 15 23.0089 15H28.0079V25H23.0089C20.2494 25 18.0099 22.76 18.0099 20Z" fill="#F24E1E"/>
<path d="M28 15H32.999C35.7584 15 37.998 17.24 37.998 20C37.998 22.76 35.7584 25 32.999 25H28V15Z" fill="#FF7262"/>
<path d="M37.998 30C37.998 32.76 35.7584 35 32.999 35C30.2396 35 28 32.76 28 30C28 27.24 30.2396 25 32.999 25C35.7584 25 37.998 27.24 37.998 30Z" fill="#1ABCFE"/>
</g>
<path d="M8.20101 8.20101C3.62041 12.7816 0.769777 18.8088 0.134828 25.2555C-0.500122 31.7023 1.1199 38.1698 4.71885 43.556C8.31781 48.9422 13.673 52.9139 19.872 54.7943C26.071 56.6748 32.7303 56.3476 38.7151 53.8686C44.7 51.3896 49.6401 46.9121 52.6938 41.1991C55.7475 35.4861 56.7258 28.8909 55.462 22.5375C54.1982 16.184 50.7705 10.4653 45.763 6.35571C40.7555 2.24614 34.478 4.89072e-07 28 0V4.2849C33.4866 4.2849 38.8035 6.18731 43.0447 9.66798C47.2859 13.1487 50.189 17.9922 51.2594 23.3734C52.3298 28.7546 51.5012 34.3405 48.9148 39.1792C46.3285 44.018 42.1443 47.8103 37.0754 49.9099C32.0064 52.0095 26.3662 52.2866 21.1159 50.6939C15.8655 49.1013 11.3298 45.7374 8.28162 41.1754C5.23342 36.6135 3.86131 31.1357 4.3991 25.6755C4.93688 20.2153 7.35127 15.1105 11.2309 11.2309L8.20101 8.20101Z" fill="#47D8E1"/>
<path d="M8.982 69.708H13.868V71.248H8.982V69.708ZM9.136 75H7.316V65.2H14.47V66.726H9.136V75ZM16.0621 75V67.524H17.8121V75H16.0621ZM16.9441 66.292C16.6174 66.292 16.3467 66.1893 16.1321 65.984C15.9267 65.7787 15.8241 65.5313 15.8241 65.242C15.8241 64.9433 15.9267 64.696 16.1321 64.5C16.3467 64.2947 16.6174 64.192 16.9441 64.192C17.2707 64.192 17.5367 64.29 17.7421 64.486C17.9567 64.6727 18.0641 64.9107 18.0641 65.2C18.0641 65.508 17.9614 65.7693 17.7561 65.984C17.5507 66.1893 17.2801 66.292 16.9441 66.292ZM23.4969 77.814C22.8063 77.814 22.1296 77.7207 21.4669 77.534C20.8136 77.3567 20.2769 77.0953 19.8569 76.75L20.6409 75.434C20.9676 75.7047 21.3783 75.9193 21.8729 76.078C22.3769 76.246 22.8856 76.33 23.3989 76.33C24.2203 76.33 24.8223 76.1387 25.2049 75.756C25.5876 75.3827 25.7789 74.818 25.7789 74.062V72.732L25.9189 71.038L25.8629 69.344V67.524H27.5289V73.866C27.5289 75.2193 27.1836 76.2133 26.4929 76.848C25.8023 77.492 24.8036 77.814 23.4969 77.814ZM23.2729 74.664C22.5636 74.664 21.9196 74.5147 21.3409 74.216C20.7716 73.908 20.3189 73.4833 19.9829 72.942C19.6563 72.4007 19.4929 71.766 19.4929 71.038C19.4929 70.3193 19.6563 69.6893 19.9829 69.148C20.3189 68.6067 20.7716 68.1867 21.3409 67.888C21.9196 67.5893 22.5636 67.44 23.2729 67.44C23.9076 67.44 24.4769 67.566 24.9809 67.818C25.4849 68.07 25.8863 68.462 26.1849 68.994C26.4929 69.526 26.6469 70.2073 26.6469 71.038C26.6469 71.8687 26.4929 72.5547 26.1849 73.096C25.8863 73.628 25.4849 74.0247 24.9809 74.286C24.4769 74.538 23.9076 74.664 23.2729 74.664ZM23.5389 73.18C23.9776 73.18 24.3696 73.0913 24.7149 72.914C25.0603 72.7273 25.3263 72.4753 25.5129 72.158C25.7089 71.8313 25.8069 71.458 25.8069 71.038C25.8069 70.618 25.7089 70.2493 25.5129 69.932C25.3263 69.6053 25.0603 69.358 24.7149 69.19C24.3696 69.0127 23.9776 68.924 23.5389 68.924C23.1003 68.924 22.7036 69.0127 22.3489 69.19C22.0036 69.358 21.7329 69.6053 21.5369 69.932C21.3503 70.2493 21.2569 70.618 21.2569 71.038C21.2569 71.458 21.3503 71.8313 21.5369 72.158C21.7329 72.4753 22.0036 72.7273 22.3489 72.914C22.7036 73.0913 23.1003 73.18 23.5389 73.18ZM39.2656 67.44C39.863 67.44 40.3903 67.5567 40.8476 67.79C41.3143 68.0233 41.6783 68.3827 41.9396 68.868C42.201 69.344 42.3316 69.96 42.3316 70.716V75H40.5816V70.94C40.5816 70.2773 40.437 69.7827 40.1476 69.456C39.8583 69.1293 39.443 68.966 38.9016 68.966C38.519 68.966 38.1783 69.05 37.8796 69.218C37.5903 69.386 37.3616 69.6333 37.1936 69.96C37.035 70.2867 36.9556 70.702 36.9556 71.206V75H35.2056V70.94C35.2056 70.2773 35.061 69.7827 34.7716 69.456C34.4823 69.1293 34.067 68.966 33.5256 68.966C33.143 68.966 32.8023 69.05 32.5036 69.218C32.2143 69.386 31.9856 69.6333 31.8176 69.96C31.659 70.2867 31.5796 70.702 31.5796 71.206V75H29.8296V67.524H31.4956V69.512L31.2016 68.924C31.4536 68.4387 31.8176 68.07 32.2936 67.818C32.779 67.566 33.3296 67.44 33.9456 67.44C34.6456 67.44 35.2523 67.6127 35.7656 67.958C36.2883 68.3033 36.6336 68.826 36.8016 69.526L36.1156 69.288C36.3583 68.728 36.7596 68.28 37.3196 67.944C37.8796 67.608 38.5283 67.44 39.2656 67.44ZM49.1739 75V73.488L49.0759 73.166V70.52C49.0759 70.0067 48.9219 69.61 48.6139 69.33C48.3059 69.0407 47.8393 68.896 47.2139 68.896C46.7939 68.896 46.3786 68.9613 45.9679 69.092C45.5666 69.2227 45.2259 69.4047 44.9459 69.638L44.2599 68.364C44.6613 68.056 45.1373 67.8273 45.6879 67.678C46.2479 67.5193 46.8266 67.44 47.4239 67.44C48.5066 67.44 49.3419 67.7013 49.9299 68.224C50.5273 68.7373 50.8259 69.5353 50.8259 70.618V75H49.1739ZM46.8219 75.098C46.2619 75.098 45.7719 75.0047 45.3519 74.818C44.9319 74.622 44.6053 74.356 44.3719 74.02C44.1479 73.6747 44.0359 73.2873 44.0359 72.858C44.0359 72.438 44.1339 72.06 44.3299 71.724C44.5353 71.388 44.8666 71.122 45.3239 70.926C45.7813 70.73 46.3879 70.632 47.1439 70.632H49.3139V71.794H47.2699C46.6726 71.794 46.2713 71.892 46.0659 72.088C45.8606 72.2747 45.7579 72.508 45.7579 72.788C45.7579 73.1053 45.8839 73.3573 46.1359 73.544C46.3879 73.7307 46.7379 73.824 47.1859 73.824C47.6153 73.824 47.9979 73.726 48.3339 73.53C48.6793 73.334 48.9266 73.0447 49.0759 72.662L49.3699 73.712C49.2019 74.1507 48.8986 74.4913 48.4599 74.734C48.0306 74.9767 47.4846 75.098 46.8219 75.098Z" fill="#EDEEF8"/>
<defs>
<clipPath id="clip0_16_72">
<rect width="20" height="30" fill="white" transform="translate(18 15)"/>
</clipPath>
</defs>
</svg>
