<svg width="70" height="78" viewBox="0 0 70 78" fill="none" xmlns="http://www.w3.org/2000/svg">
<circle cx="28" cy="28" r="22" fill="#C4C4C4" fill-opacity="0.4"/>
<path d="M16.6114 2.42073C10.2724 5.24303 5.20713 10.3186 2.39768 16.6633C-0.411762 23.008 -0.765257 30.1699 1.40573 36.7604C3.57672 43.351 8.11753 48.9006 14.1478 52.3334C20.1781 55.7663 27.2682 56.8377 34.0435 55.34C40.8189 53.8423 46.7967 49.8822 50.8182 44.2274C54.8396 38.5727 56.6182 31.6261 55.8089 24.7346C54.9997 17.843 51.6604 11.4974 46.4384 6.92807C41.2164 2.35871 34.4837 -0.10889 27.5457 0.00368522L27.6152 4.28802C33.4915 4.19267 39.1938 6.28265 43.6167 10.1528C48.0396 14.0229 50.8679 19.3974 51.5533 25.2343C52.2387 31.0712 50.7323 36.9547 47.3263 41.7441C43.9202 46.5335 38.8572 49.8876 33.1187 51.1561C27.3802 52.4246 21.3751 51.5171 16.2676 48.6096C11.1602 45.7021 7.31427 41.0018 5.47551 35.4198C3.63675 29.8378 3.93615 23.7719 6.31566 18.3982C8.69517 13.0244 12.9853 8.72558 18.3542 6.33518L16.6114 2.42073Z" fill="#47D8E1"/>
<path d="M2.316 75V65.2H6.348C7.216 65.2 7.958 65.34 8.574 65.62C9.19933 65.9 9.68 66.3013 10.016 66.824C10.352 67.3467 10.52 67.9673 10.52 68.686C10.52 69.4047 10.352 70.0253 10.016 70.548C9.68 71.0613 9.19933 71.458 8.574 71.738C7.958 72.0087 7.216 72.144 6.348 72.144H3.324L4.136 71.318V75H2.316ZM8.728 75L6.25 71.444H8.196L10.688 75H8.728ZM4.136 71.514L3.324 70.646H6.264C7.06667 70.646 7.66867 70.4733 8.07 70.128C8.48067 69.7827 8.686 69.302 8.686 68.686C8.686 68.0607 8.48067 67.58 8.07 67.244C7.66867 66.908 7.06667 66.74 6.264 66.74H3.324L4.136 65.844V71.514ZM14.2362 69.274H19.1082V70.772H14.2362V69.274ZM14.3762 73.474H19.9062V75H12.5562V65.2H19.7102V66.726H14.3762V73.474ZM20.5491 75L24.9591 65.2H26.7511L31.1751 75H29.2711L25.4771 66.166H26.2051L22.4251 75H20.5491ZM22.5791 72.732L23.0691 71.304H28.3611L28.8511 72.732H22.5791ZM36.8208 75.14C36.0741 75.14 35.3788 75.0187 34.7348 74.776C34.1001 74.524 33.5448 74.174 33.0688 73.726C32.6021 73.2687 32.2381 72.732 31.9768 72.116C31.7154 71.5 31.5848 70.828 31.5848 70.1C31.5848 69.372 31.7154 68.7 31.9768 68.084C32.2381 67.468 32.6068 66.936 33.0828 66.488C33.5588 66.0307 34.1141 65.6807 34.7488 65.438C35.3834 65.186 36.0788 65.06 36.8348 65.06C37.6374 65.06 38.3701 65.2 39.0328 65.48C39.6954 65.7507 40.2554 66.1567 40.7128 66.698L39.5368 67.804C39.1821 67.4213 38.7854 67.1367 38.3468 66.95C37.9081 66.754 37.4321 66.656 36.9188 66.656C36.4054 66.656 35.9341 66.74 35.5048 66.908C35.0848 67.076 34.7161 67.314 34.3988 67.622C34.0908 67.93 33.8481 68.294 33.6708 68.714C33.5028 69.134 33.4188 69.596 33.4188 70.1C33.4188 70.604 33.5028 71.066 33.6708 71.486C33.8481 71.906 34.0908 72.27 34.3988 72.578C34.7161 72.886 35.0848 73.124 35.5048 73.292C35.9341 73.46 36.4054 73.544 36.9188 73.544C37.4321 73.544 37.9081 73.4507 38.3468 73.264C38.7854 73.068 39.1821 72.774 39.5368 72.382L40.7128 73.502C40.2554 74.034 39.6954 74.44 39.0328 74.72C38.3701 75 37.6328 75.14 36.8208 75.14ZM44.3353 75V66.74H41.0873V65.2H49.4033V66.74H46.1553V75H44.3353ZM56.1643 75.14C55.5389 75.14 54.9603 75.0187 54.4283 74.776C53.9056 74.5333 53.4763 74.1833 53.1403 73.726L54.1763 72.48C54.4469 72.8533 54.7409 73.1333 55.0583 73.32C55.3849 73.5067 55.7396 73.6 56.1223 73.6C57.1396 73.6 57.6483 72.998 57.6483 71.794V66.726H54.1623V65.2H59.4683V71.696C59.4683 72.8533 59.1836 73.7167 58.6143 74.286C58.0543 74.8553 57.2376 75.14 56.1643 75.14ZM65.0591 75.14C64.2937 75.14 63.5611 75.0327 62.8611 74.818C62.1611 74.594 61.6057 74.3093 61.1951 73.964L61.8251 72.55C62.2171 72.858 62.7024 73.1147 63.2811 73.32C63.8597 73.5253 64.4524 73.628 65.0591 73.628C65.5724 73.628 65.9877 73.572 66.3051 73.46C66.6224 73.348 66.8557 73.1987 67.0051 73.012C67.1544 72.816 67.2291 72.5967 67.2291 72.354C67.2291 72.0553 67.1217 71.8173 66.9071 71.64C66.6924 71.4533 66.4124 71.3087 66.0671 71.206C65.7311 71.094 65.3531 70.9913 64.9331 70.898C64.5224 70.8047 64.1071 70.6973 63.6871 70.576C63.2764 70.4453 62.8984 70.282 62.5531 70.086C62.2171 69.8807 61.9417 69.61 61.7271 69.274C61.5124 68.938 61.4051 68.5087 61.4051 67.986C61.4051 67.454 61.5451 66.9687 61.8251 66.53C62.1144 66.082 62.5484 65.7273 63.1271 65.466C63.7151 65.1953 64.4571 65.06 65.3531 65.06C65.9411 65.06 66.5244 65.1347 67.1031 65.284C67.6817 65.4333 68.1857 65.648 68.6151 65.928L68.0411 67.342C67.6024 67.0807 67.1497 66.8893 66.6831 66.768C66.2164 66.6373 65.7684 66.572 65.3391 66.572C64.8351 66.572 64.4244 66.6327 64.1071 66.754C63.7991 66.8753 63.5704 67.034 63.4211 67.23C63.2811 67.426 63.2111 67.65 63.2111 67.902C63.2111 68.2007 63.3137 68.4433 63.5191 68.63C63.7337 68.8073 64.0091 68.9473 64.3451 69.05C64.6904 69.1527 65.0731 69.2553 65.4931 69.358C65.9131 69.4513 66.3284 69.5587 66.7391 69.68C67.1591 69.8013 67.5371 69.96 67.8731 70.156C68.2184 70.352 68.4937 70.618 68.6991 70.954C68.9137 71.29 69.0211 71.7147 69.0211 72.228C69.0211 72.7507 68.8764 73.236 68.5871 73.684C68.3071 74.1227 67.8731 74.4773 67.2851 74.748C66.6971 75.0093 65.9551 75.14 65.0591 75.14Z" fill="white"/>
<path d="M37.4882 23.0477C37.1583 22.9205 36.8256 22.8026 36.4904 22.6943C36.5467 22.4357 36.5985 22.1802 36.6445 21.9292C37.3999 17.8079 36.9061 14.4876 35.2194 13.3944C33.6022 12.3464 30.9573 13.4392 28.2863 16.052C28.023 16.3099 27.7656 16.5753 27.5143 16.8479C27.346 16.6667 27.1748 16.4889 27.0007 16.3148C24.2013 13.5211 21.3953 12.3437 19.7104 13.44C18.0946 14.4913 17.6162 17.6125 18.2963 21.5185C18.3639 21.9053 18.4403 22.2901 18.5254 22.6726C18.1282 22.7995 17.7449 22.9345 17.3781 23.0782C14.096 24.3644 12 26.38 12 28.4707C12 30.6299 14.2502 32.7958 17.6686 34.109C17.9458 34.2151 18.2252 34.3133 18.5067 34.4037C18.4153 34.8157 18.3341 35.2304 18.2633 35.6474C17.615 39.4856 18.1213 42.5331 19.7327 43.5777C21.397 44.6564 24.1904 43.5477 26.9103 40.8753C27.1308 40.6581 27.3465 40.4346 27.5572 40.2053C27.8293 40.5004 28.1088 40.787 28.3951 41.0646C31.0299 43.6128 33.6319 44.6417 35.2418 43.5943C36.9045 42.5124 37.4449 39.2385 36.7433 35.2554C36.6881 34.9434 36.6261 34.6329 36.5574 34.3242C36.7536 34.2589 36.9462 34.1917 37.1339 34.1217C40.6877 32.7984 43 30.6588 43 28.4707C43 26.3723 40.8363 24.3432 37.4882 23.0477ZM36.7174 32.7089C36.5479 32.772 36.374 32.8328 36.1967 32.892C35.8044 31.496 35.2749 30.0116 34.627 28.4779C35.2453 26.9807 35.7544 25.5153 36.1357 24.1284C36.4528 24.2316 36.7605 24.3403 37.0572 24.455C39.9259 25.5651 41.6757 27.2061 41.6757 28.4707C41.6757 29.8175 39.7859 31.5661 36.7174 32.7089ZM35.4442 35.5445C35.7545 37.3057 35.7987 38.8981 35.5932 40.1431C35.4086 41.2617 35.0374 42.0074 34.5782 42.3062C33.6013 42.9418 31.5121 42.1156 29.2589 39.9363C28.9925 39.6782 28.7326 39.4118 28.4794 39.1374C29.353 38.0637 30.2259 36.8155 31.078 35.4291C32.5766 35.2797 33.9924 35.0352 35.2764 34.7016C35.3382 34.9811 35.3942 35.2621 35.4442 35.5445ZM22.5686 42.1964C21.6141 42.5751 20.8539 42.586 20.3943 42.2882C19.4165 41.6544 19.01 39.2074 19.5645 35.9251C19.6304 35.5372 19.7059 35.1515 19.7908 34.7683C21.0606 35.0841 22.4661 35.3111 23.9683 35.448C24.8261 36.8046 25.7243 38.0514 26.6295 39.1433C26.4371 39.3525 26.2402 39.5563 26.0389 39.7546C24.8361 40.9363 23.6308 41.7747 22.5686 42.1964ZM18.0971 32.7006C16.5855 32.1199 15.3371 31.3652 14.4815 30.5416C13.7125 29.8016 13.3244 29.0668 13.3244 28.4707C13.3244 27.2019 15.0072 25.5836 17.8141 24.4838C18.1547 24.3504 18.5112 24.2245 18.8812 24.1063C19.2691 25.5245 19.778 27.0074 20.392 28.5069C19.77 30.0285 19.2539 31.535 18.8621 32.97C18.6052 32.8873 18.3501 32.7975 18.0971 32.7006ZM19.596 21.2325C19.0134 17.8861 19.4003 15.3618 20.374 14.7282C21.411 14.0534 23.7043 15.0155 26.1215 17.4279C26.2791 17.5855 26.4342 17.7464 26.5866 17.9103C25.6859 18.9974 24.796 20.235 23.9458 21.5835C22.4878 21.7354 21.0922 21.9793 19.8091 22.3061C19.73 21.9503 19.659 21.5924 19.596 21.2326V21.2325ZM32.968 24.9438C32.6649 24.3554 32.3506 23.7744 32.0253 23.2013C33.0144 23.3418 33.962 23.5284 34.852 23.7566C34.5848 24.7191 34.2518 25.7253 33.8598 26.757C33.5733 26.146 33.276 25.5415 32.968 24.9438ZM27.5149 18.9741C28.1257 19.7179 28.7375 20.5483 29.3392 21.4493C28.1185 21.3845 26.8959 21.3843 25.6752 21.4485C26.2776 20.5558 26.8945 19.7265 27.5149 18.9741ZM22.0268 24.954C21.7227 25.5468 21.4309 26.1476 21.1517 26.7557C20.7661 25.7278 20.4361 24.7169 20.1667 23.7408C21.0512 23.5184 21.9944 23.3365 22.9771 23.1985C22.6482 23.7752 22.3313 24.3605 22.0268 24.9539V24.954ZM23.0054 33.8487C21.99 33.7213 21.0326 33.5488 20.1484 33.3324C20.4221 32.3389 20.7593 31.3065 21.1532 30.2565C21.4335 30.8651 21.7266 31.4662 22.032 32.0593C22.3461 32.6691 22.6714 33.2663 23.0054 33.8487ZM27.5515 38.072C26.9237 37.3109 26.2977 36.4688 25.6863 35.5632C26.2799 35.5893 26.885 35.6026 27.5 35.6026C28.1319 35.6026 28.7565 35.5867 29.3713 35.556C28.7676 36.4779 28.1581 37.3212 27.5515 38.072ZM33.8723 30.2029C34.2867 31.2645 34.6359 32.2914 34.9132 33.2679C34.0145 33.4985 33.044 33.6841 32.0215 33.822C32.3492 33.2382 32.6665 32.6471 32.9732 32.0491C33.2851 31.4413 33.5848 30.8257 33.8723 30.2029ZM31.8261 31.3054C31.3565 32.2223 30.8605 33.1217 30.3389 34.0023C29.3941 34.0775 28.4472 34.1149 27.5 34.1144C26.5352 34.1144 25.5969 34.0806 24.6933 34.0147C24.1581 33.1361 23.6526 32.2351 23.178 31.3136H23.1782C22.7058 30.397 22.2646 29.4605 21.8555 28.5062C22.2635 27.5517 22.7034 26.6147 23.1742 25.6974L23.174 25.6975C23.6446 24.78 24.146 23.8828 24.6772 23.008C25.5991 22.9296 26.5444 22.8888 27.4999 22.8888H27.5C28.4598 22.8888 29.4064 22.93 30.328 23.0089C30.8538 23.8824 31.352 24.7765 31.8217 25.6895C32.294 26.6048 32.7397 27.5372 33.1581 28.4851C32.744 29.4427 32.2997 30.3834 31.8261 31.3054ZM34.5579 14.6839C35.596 15.3568 35.9997 18.0703 35.3475 21.6287C35.3058 21.8557 35.2591 22.087 35.2082 22.3215C33.922 21.9877 32.5254 21.7396 31.0632 21.5854C30.2114 20.2221 29.3288 18.9826 28.4427 17.9095C28.6749 17.6579 28.9127 17.4129 29.1557 17.1746C31.4444 14.9361 33.5834 14.0522 34.5579 14.6839ZM27.5 25.3593C29.0288 25.3593 30.2682 26.7523 30.2682 28.4707C30.2682 30.189 29.0288 31.582 27.5 31.582C25.9712 31.582 24.7318 30.189 24.7318 28.4707C24.7318 26.7523 25.9712 25.3593 27.5 25.3593Z" fill="#00D8FF"/>
</svg>
