<svg width="65" height="77" viewBox="0 0 65 77" fill="none" xmlns="http://www.w3.org/2000/svg">
<circle cx="31" cy="28" r="22" fill="#C4C4C4" fill-opacity="0.4"/>
<path d="M19.6114 2.42073C13.2724 5.24303 8.20713 10.3186 5.39768 16.6633C2.58824 23.008 2.23474 30.1699 4.40573 36.7604C6.57672 43.351 11.1175 48.9006 17.1478 52.3334C23.1781 55.7663 30.2682 56.8377 37.0435 55.34C43.8189 53.8423 49.7967 49.8822 53.8182 44.2274C57.8396 38.5727 59.6182 31.6261 58.8089 24.7346C57.9997 17.843 54.6604 11.4974 49.4384 6.92807C44.2164 2.35871 37.4837 -0.10889 30.5457 0.00368522L30.6152 4.28802C36.4915 4.19267 42.1938 6.28265 46.6167 10.1528C51.0396 14.0229 53.8679 19.3974 54.5533 25.2343C55.2387 31.0712 53.7323 36.9547 50.3263 41.7441C46.9202 46.5335 41.8572 49.8876 36.1187 51.1561C30.3802 52.4246 24.3751 51.5171 19.2676 48.6096C14.1602 45.7021 10.3143 41.0018 8.47551 35.4198C6.63675 29.8378 6.93615 23.7719 9.31566 18.3982C11.6952 13.0244 15.9853 8.72558 21.3542 6.33518L19.6114 2.42073Z" fill="#47D8E1"/>
<path d="M1.316 74V64.2H2.814L8.96 71.746H8.218V64.2H10.024V74H8.526L2.38 66.454H3.122V74H1.316ZM17.242 74.14C16.4767 74.14 15.772 74.014 15.128 73.762C14.484 73.51 13.924 73.16 13.448 72.712C12.972 72.2547 12.6033 71.7227 12.342 71.116C12.0807 70.5 11.95 69.828 11.95 69.1C11.95 68.372 12.0807 67.7047 12.342 67.098C12.6033 66.482 12.972 65.95 13.448 65.502C13.924 65.0447 14.484 64.69 15.128 64.438C15.772 64.186 16.472 64.06 17.228 64.06C17.9933 64.06 18.6933 64.186 19.328 64.438C19.972 64.69 20.532 65.0447 21.008 65.502C21.484 65.95 21.8527 66.482 22.114 67.098C22.3753 67.7047 22.506 68.372 22.506 69.1C22.506 69.828 22.3753 70.5 22.114 71.116C21.8527 71.732 21.484 72.264 21.008 72.712C20.532 73.16 19.972 73.51 19.328 73.762C18.6933 74.014 17.998 74.14 17.242 74.14ZM17.228 72.544C17.7227 72.544 18.18 72.46 18.6 72.292C19.02 72.124 19.384 71.886 19.692 71.578C20 71.2607 20.238 70.8967 20.406 70.486C20.5833 70.066 20.672 69.604 20.672 69.1C20.672 68.596 20.5833 68.1387 20.406 67.728C20.238 67.308 20 66.944 19.692 66.636C19.384 66.3187 19.02 66.076 18.6 65.908C18.18 65.74 17.7227 65.656 17.228 65.656C16.7333 65.656 16.276 65.74 15.856 65.908C15.4453 66.076 15.0813 66.3187 14.764 66.636C14.456 66.944 14.2133 67.308 14.036 67.728C13.868 68.1387 13.784 68.596 13.784 69.1C13.784 69.5947 13.868 70.052 14.036 70.472C14.2133 70.892 14.456 71.2607 14.764 71.578C15.072 71.886 15.436 72.124 15.856 72.292C16.276 72.46 16.7333 72.544 17.228 72.544ZM24.4351 74V64.2H28.7191C29.7831 64.2 30.7165 64.4053 31.5191 64.816C32.3218 65.2267 32.9471 65.796 33.3951 66.524C33.8431 67.252 34.0671 68.1107 34.0671 69.1C34.0671 70.08 33.8431 70.9387 33.3951 71.676C32.9471 72.404 32.3218 72.9733 31.5191 73.384C30.7165 73.7947 29.7831 74 28.7191 74H24.4351ZM26.2551 72.46H28.6351C29.3725 72.46 30.0071 72.32 30.5391 72.04C31.0805 71.76 31.4958 71.368 31.7851 70.864C32.0838 70.36 32.2331 69.772 32.2331 69.1C32.2331 68.4187 32.0838 67.8307 31.7851 67.336C31.4958 66.832 31.0805 66.44 30.5391 66.16C30.0071 65.88 29.3725 65.74 28.6351 65.74H26.2551V72.46ZM37.6815 68.274H42.5535V69.772H37.6815V68.274ZM37.8215 72.474H43.3515V74H36.0015V64.2H43.1555V65.726H37.8215V72.474ZM50.7756 74.14C50.1503 74.14 49.5716 74.0187 49.0396 73.776C48.5169 73.5333 48.0876 73.1833 47.7516 72.726L48.7876 71.48C49.0583 71.8533 49.3523 72.1333 49.6696 72.32C49.9963 72.5067 50.3509 72.6 50.7336 72.6C51.7509 72.6 52.2596 71.998 52.2596 70.794V65.726H48.7736V64.2H54.0796V70.696C54.0796 71.8533 53.7949 72.7167 53.2256 73.286C52.6656 73.8553 51.8489 74.14 50.7756 74.14ZM59.6704 74.14C58.9051 74.14 58.1724 74.0327 57.4724 73.818C56.7724 73.594 56.2171 73.3093 55.8064 72.964L56.4364 71.55C56.8284 71.858 57.3137 72.1147 57.8924 72.32C58.4711 72.5253 59.0637 72.628 59.6704 72.628C60.1837 72.628 60.5991 72.572 60.9164 72.46C61.2337 72.348 61.4671 72.1987 61.6164 72.012C61.7657 71.816 61.8404 71.5967 61.8404 71.354C61.8404 71.0553 61.7331 70.8173 61.5184 70.64C61.3037 70.4533 61.0237 70.3087 60.6784 70.206C60.3424 70.094 59.9644 69.9913 59.5444 69.898C59.1337 69.8047 58.7184 69.6973 58.2984 69.576C57.8877 69.4453 57.5097 69.282 57.1644 69.086C56.8284 68.8807 56.5531 68.61 56.3384 68.274C56.1237 67.938 56.0164 67.5087 56.0164 66.986C56.0164 66.454 56.1564 65.9687 56.4364 65.53C56.7257 65.082 57.1597 64.7273 57.7384 64.466C58.3264 64.1953 59.0684 64.06 59.9644 64.06C60.5524 64.06 61.1357 64.1347 61.7144 64.284C62.2931 64.4333 62.7971 64.648 63.2264 64.928L62.6524 66.342C62.2137 66.0807 61.7611 65.8893 61.2944 65.768C60.8277 65.6373 60.3797 65.572 59.9504 65.572C59.4464 65.572 59.0357 65.6327 58.7184 65.754C58.4104 65.8753 58.1817 66.034 58.0324 66.23C57.8924 66.426 57.8224 66.65 57.8224 66.902C57.8224 67.2007 57.9251 67.4433 58.1304 67.63C58.3451 67.8073 58.6204 67.9473 58.9564 68.05C59.3017 68.1527 59.6844 68.2553 60.1044 68.358C60.5244 68.4513 60.9397 68.5587 61.3504 68.68C61.7704 68.8013 62.1484 68.96 62.4844 69.156C62.8297 69.352 63.1051 69.618 63.3104 69.954C63.5251 70.29 63.6324 70.7147 63.6324 71.228C63.6324 71.7507 63.4877 72.236 63.1984 72.684C62.9184 73.1227 62.4844 73.4773 61.8964 73.748C61.3084 74.0093 60.5664 74.14 59.6704 74.14Z" fill="#EDEEF8"/>
<path d="M32 44C31.6223 44.0001 31.2512 43.9008 30.924 43.712L27.5 41.685C26.989 41.399 27.238 41.298 27.407 41.239C27.9505 41.0711 28.4709 40.8359 28.956 40.539C28.9966 40.5202 29.0414 40.5121 29.086 40.5154C29.1306 40.5187 29.1737 40.5334 29.211 40.558L31.842 42.121C31.891 42.1469 31.9456 42.1604 32.001 42.1604C32.0565 42.1604 32.111 42.1469 32.16 42.121L42.42 36.199C42.468 36.1702 42.5078 36.1295 42.5353 36.0807C42.5628 36.032 42.5772 35.9769 42.577 35.921V24.075C42.5771 24.0181 42.5625 23.9622 42.5346 23.9126C42.5068 23.8631 42.4666 23.8215 42.418 23.792L32.158 17.875C32.1096 17.8477 32.0551 17.8334 31.9995 17.8334C31.944 17.8334 31.8894 17.8477 31.841 17.875L21.587 23.794C21.5381 23.8229 21.4975 23.864 21.4691 23.9132C21.4407 23.9624 21.4256 24.0182 21.425 24.075V35.916C21.4252 35.9718 21.4402 36.0266 21.4684 36.0748C21.4967 36.1229 21.5373 36.1627 21.586 36.19L24.4 37.814C25.925 38.576 26.859 37.678 26.859 36.776V25.085C26.859 25.0054 26.8906 24.9291 26.9469 24.8728C27.0032 24.8166 27.0795 24.785 27.159 24.785H28.459C28.5386 24.785 28.6149 24.8166 28.6712 24.8728C28.7274 24.9291 28.759 25.0054 28.759 25.085V36.777C28.759 38.812 27.651 39.977 25.721 39.977C24.8884 39.9915 24.0688 39.7688 23.358 39.335L20.661 37.788C20.3336 37.5973 20.0619 37.3241 19.8731 36.9956C19.6843 36.6671 19.585 36.2949 19.585 35.916V24.075C19.5841 23.6955 19.683 23.3225 19.8719 22.9933C20.0607 22.6642 20.3329 22.3906 20.661 22.2L30.922 16.276C31.2526 16.0951 31.6233 16.0004 32 16.0004C32.3768 16.0004 32.7475 16.0951 33.078 16.276L43.338 22.2C43.6654 22.3903 43.9371 22.6631 44.1261 22.9912C44.3151 23.3194 44.4147 23.6913 44.415 24.07V35.916C44.4145 36.2949 44.3148 36.667 44.1258 36.9954C43.9369 37.3238 43.6653 37.5971 43.338 37.788L33.078 43.712C32.7503 43.9011 32.3784 44.0004 32 44Z" fill="#21B55D"/>
<path d="M30.054 31.953C30.054 31.8734 30.0856 31.7971 30.1419 31.7409C30.1981 31.6846 30.2745 31.653 30.354 31.653H31.681C31.7519 31.6532 31.8204 31.6786 31.8745 31.7245C31.9285 31.7705 31.9644 31.834 31.976 31.904C32.176 33.255 32.776 33.936 35.489 33.936C37.65 33.936 38.571 33.447 38.571 32.3C38.571 31.639 38.31 31.148 34.951 30.819C32.143 30.541 30.407 29.919 30.407 27.675C30.407 25.605 32.152 24.37 35.077 24.37C38.364 24.37 39.991 25.511 40.197 27.959C40.2002 27.9999 40.1949 28.0409 40.1816 28.0797C40.1682 28.1185 40.1471 28.1541 40.1194 28.1843C40.0918 28.2146 40.0582 28.2389 40.0208 28.2557C39.9834 28.2725 39.943 28.2814 39.902 28.282H38.566C38.499 28.2811 38.4342 28.2577 38.382 28.2157C38.3298 28.1736 38.2932 28.1153 38.278 28.05C37.959 26.629 37.178 26.175 35.078 26.175C32.718 26.175 32.444 26.997 32.444 27.613C32.444 28.359 32.768 28.577 35.954 28.998C39.107 29.415 40.605 30.005 40.605 32.221C40.605 34.457 38.741 35.737 35.49 35.737C30.995 35.743 30.054 33.682 30.054 31.953Z" fill="#21B55D"/>
</svg>
